<?xml version="1.0" encoding="utf-8"?>
<!-- Generator: Adobe Illustrator 26.0.1, SVG Export Plug-In . SVG Version: 6.00 Build 0)  -->
<svg version="1.1" id="Layer_1" xmlns="http://www.w3.org/2000/svg" xmlns:xlink="http://www.w3.org/1999/xlink" x="0px" y="0px"
	 viewBox="0 0 700 700" style="enable-background:new 0 0 700 700;" xml:space="preserve">
<style type="text/css">
	.st0{fill-rule:evenodd;clip-rule:evenodd;fill:#FFFFFF;}
</style>
<g>
	<path class="st0" d="M190.1,159.1c64-150.2,292-130.7,331,26.9c43.6,8.3,81.6,37.1,100.1,77.9c128.9,58.4,91.8,262.4-58.4,262.4
		H137.2c-143.7,0-186.4-189.1-70.5-255.9C79.7,211,129.8,166.5,190.1,159.1L190.1,159.1z M228.1,425.2
		c-13.9,14.8-37.1-7.4-22.2-22.2c35.2-36.2,94.6-50.1,143.7-50.1c49.1,0,109.4,13.9,144.6,50.1c13.9,14.8-8.3,37.1-22.2,22.2
		c-29.7-29.7-81.6-40.8-122.4-40.8C309.7,384.4,256.8,395.5,228.1,425.2L228.1,425.2z M446,249c-16.7,0-30.6,13.9-30.6,30.6
		c0,15.8,13.9,29.7,30.6,29.7c15.8,0,29.7-13.9,29.7-29.7C475.6,263,461.7,249,446,249z M254,249c16.7,0,30.6,13.9,30.6,30.6
		c0,15.8-13.9,29.7-30.6,29.7c-16.7,0-29.7-13.9-29.7-29.7C224.4,263,237.4,249,254,249L254,249z M591.5,294.5
		c107.5,33.4,83.4,191.9-28.7,191.9H137.2C28.7,486.4,0,335.3,102.9,297.3c2.8-55.6,48.2-100.1,104.8-100.1h10.2
		c38-149.3,259.6-129.8,268.9,25h7.4C539.6,222.2,578.6,252.8,591.5,294.5L591.5,294.5z"/>
	<g>
		<defs>
			<polyline id="SVGID_1_" points="714.2,540.2 714.2,1240.2 14.2,1240.2 			"/>
		</defs>
		<clipPath id="SVGID_00000115501734712277804670000016891674763949460889_">
			<use xlink:href="#SVGID_1_"  style="overflow:visible;"/>
		</clipPath>
	</g>
	<g>
		<defs>
			<polyline id="SVGID_00000114781877325234530940000005992883036154760107_" points="733.7,540.2 733.7,1240.2 33.7,1240.2 			"/>
		</defs>
		<clipPath id="SVGID_00000001648113825028331010000012828142190102795703_">
			<use xlink:href="#SVGID_00000114781877325234530940000005992883036154760107_"  style="overflow:visible;"/>
		</clipPath>
	</g>
	<g>
		<defs>
			<polyline id="SVGID_00000074440652445068464690000007549275284858968470_" points="737.6,540.2 737.6,1240.2 37.6,1240.2 			"/>
		</defs>
		<clipPath id="SVGID_00000036948054109216916120000010037067095573670052_">
			<use xlink:href="#SVGID_00000074440652445068464690000007549275284858968470_"  style="overflow:visible;"/>
		</clipPath>
	</g>
	<g>
		<defs>
			<polyline id="SVGID_00000057862590317818708040000008500993142670177455_" points="740.6,540.2 740.6,1240.2 40.6,1240.2 			"/>
		</defs>
		<clipPath id="SVGID_00000032619506682878493700000007849603801068173496_">
			<use xlink:href="#SVGID_00000057862590317818708040000008500993142670177455_"  style="overflow:visible;"/>
		</clipPath>
	</g>
	<g>
		<defs>
			<polyline id="SVGID_00000096018548891144525910000003171282658786131388_" points="752.5,540.2 752.5,1240.2 52.5,1240.2 			"/>
		</defs>
		<clipPath id="SVGID_00000091001678409677284690000005717024718014665099_">
			<use xlink:href="#SVGID_00000096018548891144525910000003171282658786131388_"  style="overflow:visible;"/>
		</clipPath>
	</g>
	<g>
		<defs>
			<polyline id="SVGID_00000021101717161375102580000001969915232858630572_" points="758.4,540.2 758.4,1240.2 58.4,1240.2 			"/>
		</defs>
		<clipPath id="SVGID_00000043438626513387057790000007044671903003884967_">
			<use xlink:href="#SVGID_00000021101717161375102580000001969915232858630572_"  style="overflow:visible;"/>
		</clipPath>
	</g>
	<g>
		<defs>
			<polyline id="SVGID_00000052786734397381762130000014509263415582146944_" points="763.3,540.2 763.3,1240.2 63.3,1240.2 			"/>
		</defs>
		<clipPath id="SVGID_00000129922695056671346040000004986103011810024111_">
			<use xlink:href="#SVGID_00000052786734397381762130000014509263415582146944_"  style="overflow:visible;"/>
		</clipPath>
	</g>
	<g>
		<defs>
			<polyline id="SVGID_00000106838183157861594500000011962631094029963922_" points="702,544.8 702,1244.8 2,1244.8 			"/>
		</defs>
		<clipPath id="SVGID_00000000212865383429830470000002266896260493385891_">
			<use xlink:href="#SVGID_00000106838183157861594500000011962631094029963922_"  style="overflow:visible;"/>
		</clipPath>
	</g>
	<g>
		<defs>
			<polyline id="SVGID_00000045578198540708723750000009538617700591676814_" points="713.9,544.8 713.9,1244.8 13.9,1244.8 			"/>
		</defs>
		<clipPath id="SVGID_00000128458761320549095340000006848911716553493382_">
			<use xlink:href="#SVGID_00000045578198540708723750000009538617700591676814_"  style="overflow:visible;"/>
		</clipPath>
	</g>
	<g>
		<defs>
			<polyline id="SVGID_00000089544727717536845680000012052039637869433770_" points="719.4,544.8 719.4,1244.8 19.4,1244.8 			"/>
		</defs>
		<clipPath id="SVGID_00000179639183421536950930000001507752024775443338_">
			<use xlink:href="#SVGID_00000089544727717536845680000012052039637869433770_"  style="overflow:visible;"/>
		</clipPath>
	</g>
	<g>
		<defs>
			<polyline id="SVGID_00000016061902845022895880000007643764627151803280_" points="728.1,544.8 728.1,1244.8 28.1,1244.8 			"/>
		</defs>
		<clipPath id="SVGID_00000084508048581214696140000016769651855603107212_">
			<use xlink:href="#SVGID_00000016061902845022895880000007643764627151803280_"  style="overflow:visible;"/>
		</clipPath>
	</g>
	<g>
		<defs>
			<polyline id="SVGID_00000153665086344592492680000015236959890355389600_" points="734.6,544.8 734.6,1244.8 34.6,1244.8 			"/>
		</defs>
		<clipPath id="SVGID_00000161623316400331641080000004518379865252924801_">
			<use xlink:href="#SVGID_00000153665086344592492680000015236959890355389600_"  style="overflow:visible;"/>
		</clipPath>
	</g>
	<g>
		<defs>
			<polyline id="SVGID_00000029747219637968977200000006618256625975311551_" points="742.9,544.8 742.9,1244.8 42.9,1244.8 			"/>
		</defs>
		<clipPath id="SVGID_00000062169840496721576920000005311117471024334261_">
			<use xlink:href="#SVGID_00000029747219637968977200000006618256625975311551_"  style="overflow:visible;"/>
		</clipPath>
	</g>
	<g>
		<defs>
			<polyline id="SVGID_00000000209089058973513600000015500554190083211193_" points="745.2,544.8 745.2,1244.8 45.2,1244.8 			"/>
		</defs>
		<clipPath id="SVGID_00000070814429243967812970000016983990397149331613_">
			<use xlink:href="#SVGID_00000000209089058973513600000015500554190083211193_"  style="overflow:visible;"/>
		</clipPath>
	</g>
	<g>
		<defs>
			<polyline id="SVGID_00000166641387629055178170000005350652575189623223_" points="749.9,544.8 749.9,1244.8 49.9,1244.8 			"/>
		</defs>
		<clipPath id="SVGID_00000071539340480001797820000002032583656564500395_">
			<use xlink:href="#SVGID_00000166641387629055178170000005350652575189623223_"  style="overflow:visible;"/>
		</clipPath>
	</g>
	<g>
		<defs>
			<polyline id="SVGID_00000136412170275846606840000005348401505176166072_" points="755.8,544.8 755.8,1244.8 55.8,1244.8 			"/>
		</defs>
		<clipPath id="SVGID_00000106116511868667594930000016437575026238999729_">
			<use xlink:href="#SVGID_00000136412170275846606840000005348401505176166072_"  style="overflow:visible;"/>
		</clipPath>
	</g>
</g>
</svg>
