<?xml version="1.0" encoding="utf-8"?>
<!-- Generator: Adobe Illustrator 26.0.1, SVG Export Plug-In . SVG Version: 6.00 Build 0)  -->
<svg version="1.1" id="Layer_1" xmlns="http://www.w3.org/2000/svg" xmlns:xlink="http://www.w3.org/1999/xlink" x="0px" y="0px"
	 viewBox="0 0 700 700" style="enable-background:new 0 0 700 700;" xml:space="preserve">
<style type="text/css">
	.st0{fill:#FFFFFF;}
</style>
<path class="st0" d="M587.8,263.9h-2.9l-74.6,0.2l-3.6,0.1c-11.4,0.9-20.5,10.5-20.5,22.2c0,12.3,10,22.2,22.3,22.3h79.9
	c11.5-1,20.5-10.6,20.5-22.4C608.8,274.4,599.6,264.7,587.8,263.9L587.8,263.9z M479.8,194.7L479.8,194.7l53.7-53.5l2.8-2.9
	c7.4-8.8,6.9-22-1.4-30.3c-8.4-8.4-21.9-8.7-30.7-1l-2.1,2.1l-52.6,52.8l-2.5,2.5c-7.4,8.7-7.1,21.9,1.2,30.2
	C457,203.3,471.1,203.3,479.8,194.7L479.8,194.7z M356.4,34.2c-11.9,0-21.7,9.3-22.4,21l0,3l0.2,74.5v3.6
	c1,11.5,10.6,20.5,22.2,20.5c12.3,0,22.3-10,22.3-22.2v-0.1l0-75.7l0-4C377.8,43.1,368.1,34.2,356.4,34.2L356.4,34.2z M264.6,163
	l-53.5-53.5l-2.9-2.9c-8.8-7.4-22-6.9-30.3,1.4c-8.4,8.4-8.7,21.9-1,30.7l2.1,2.1l52.9,52.5l2.6,2.5c8.8,7.5,22,7,30.2-1.2
	C273.4,185.8,273.4,171.8,264.6,163L264.6,163z M206.1,308.4c11.5-0.9,20.5-10.5,20.5-22.2c0-12.3-10-22.2-22.3-22.3l-79.9,0
	c-11.5,1-20.5,10.6-20.4,22.3c0,11.9,9.3,21.6,21,22.4h2.9l74.6-0.2L206.1,308.4L206.1,308.4z M233,377.9L233,377.9l-53.6,53.6
	l-2.8,2.8c-7.4,8.8-6.9,22,1.4,30.3c8.4,8.4,21.9,8.8,30.7,1l2.1-2.1l52.6-52.8l2.5-2.5c7.4-8.8,7-21.9-1.2-30.2
	C255.8,369.3,241.8,369.3,233,377.9L233,377.9z M378.6,436.5C377.7,425,368,416,356.3,416c-12.3,0-22.3,10-22.3,22.2v0.1l0,75.7l0,4
	c1,11.4,10.7,20.4,22.4,20.4c11.9,0,21.6-9.3,22.4-21v-3l-0.2-74.5L378.6,436.5z M533.8,431.9l-52.9-52.5l-2.5-2.5
	c-8.8-7.5-22-7.1-30.2,1.2c-8.7,8.7-8.7,22.8,0,31.5l0.1,0.1l53.5,53.5l2.9,2.8c8.8,7.4,22,7,30.3-1.3c8.4-8.4,8.7-21.9,1-30.7
	L533.8,431.9z"/>
</svg>
