<?xml version="1.0" encoding="utf-8"?>
<!-- Generator: Adobe Illustrator 26.0.1, SVG Export Plug-In . SVG Version: 6.00 Build 0)  -->
<svg version="1.1" id="Layer_1" xmlns="http://www.w3.org/2000/svg" xmlns:xlink="http://www.w3.org/1999/xlink" x="0px" y="0px"
	 viewBox="0 0 700 700" style="enable-background:new 0 0 700 700;" xml:space="preserve">
<style type="text/css">
	.st0{fill:#FFFFFF;}
	.st1{fill-rule:evenodd;clip-rule:evenodd;fill:#FFFFFF;}
</style>
<g>
	<path class="st0" d="M350,0c154.6,0,280,125.4,280,280c0,154.6-125.4,280-280,280S70,434.6,70,280C70,125.4,195.4,0,350,0z
		 M350,33.5c-136.1,0-246.5,110.3-246.5,246.5c0,136.1,110.4,246.5,246.5,246.5S596.5,416.1,596.5,280
		C596.5,143.9,486.1,33.5,350,33.5z"/>
	<path class="st1" d="M460.7,263L288,173.1c-6.1-3.2-12.9-3-18.7,0.6c-5.9,3.6-9.2,9.5-9.2,16.4v179.9c0,6.9,3.3,12.8,9.2,16.3
		c5.9,3.6,12.6,3.8,18.7,0.6L460.7,297c6.5-3.4,10.3-9.7,10.3-17S467.2,266.4,460.7,263L460.7,263z"/>
</g>
</svg>
