<?xml version="1.0" encoding="utf-8"?>
<!-- Generator: Adobe Illustrator 26.0.1, SVG Export Plug-In . SVG Version: 6.00 Build 0)  -->
<svg version="1.1" id="Layer_1" xmlns="http://www.w3.org/2000/svg" xmlns:xlink="http://www.w3.org/1999/xlink" x="0px" y="0px"
	 viewBox="0 0 700 700" style="enable-background:new 0 0 700 700;" xml:space="preserve">
<style type="text/css">
	.st0{fill:#FFFFFF;}
</style>
<path class="st0" d="M513,137.2c-5.1-3.1-11.7-1.8-15.3,3c-3.6,4.7-7.1,9.3-11.2,13c-4.1,3.8-4.9,10-1.9,14.7
	c3.1,4.9,4.9,10.5,5.2,16.3c0.9,13.6-6.3,26.6-18.4,33.1c-15.1,8.1-32.4,12.2-51.7,12.2c-5.1,0-10.1-0.3-14.8-0.8
	c-4.8-0.4-9.2,2-11.4,6.1c-8.5,15.9-20.2,28.7-35.8,39.1c-10.1,6.7-23.3,7.7-34.2,2.6c-17.2-8-34-25.1-50-50.8
	c-2-3.2-5.4-5.2-9.1-5.5c-49.9-3.4-72.3-14.6-77.1-38.6c-1.4-7.1-0.5-14.6,2.6-21.4c2.2-4.8,1-10.4-3-13.8c-4-3.4-9.8-3.7-14.1-0.8
	C107.5,190,70,255.8,70,326.5c0,128.7,125.6,233.3,280,233.3s280-104.7,280-233.3C630,251.8,586.3,181,513,137.2L513,137.2z
	 M207.7,461c-2.3,3.1-5.8,4.7-9.4,4.7c-2.4,0-4.9-0.7-6.9-2.3c-47.5-35.2-74.7-85.1-74.7-136.9c0-6.4,5.2-11.7,11.7-11.7
	s11.7,5.2,11.7,11.7c0,45,23.2,86.9,65.3,118.2C210.4,448.5,211.5,455.8,207.7,461L207.7,461z M284.4,198
	c15.6,29.4,33.2,50.1,49,57.5c1.6,0.7,3.3,1.1,4.9,1.1c2.3,0,4.5-0.7,6.5-2c18.7-12.4,30.4-29.3,37.1-53.6
	c20.6,5.2,51.8,10.2,78.6-4.2c4-2.2,6.4-6.5,6.1-11c-0.3-4.6-3.2-8.5-7.5-10.2c-9.5-3.6-19.1-10.9-26.9-17.8
	c20.6-6.7,46.1-20.5,57-48.7c1.3-3.2,1.1-6.7-0.6-9.8c-1.6-3-4.5-5.2-7.8-5.9c-48.2-10.5-81.9,0.2-101.7,11.1
	c5.8-15.6,16-28.3,30.2-42.5c14.2-14.2,14.2-37.3,0-51.5c-13.7-13.8-37.7-13.8-51.5,0l-11.7,11.7c-4.6,4.6-8.6,9.6-12.3,14.9
	c-1.2,1.6-2.2,3.4-3.3,5.1c-2.4,3.8-4.8,7.7-6.9,11.8c-1,1.9-1.9,3.8-2.9,5.8c-2,4.3-3.8,8.7-5.4,13.1c-0.6,1.6-1.3,3.2-1.8,4.8
	c-2,6.1-3.8,12.2-5.2,18.3c-3.6,15.5-5.1,30.6-5.1,43.4v12.2c0,6.4-5.2,11.7-11.7,11.7S280,158,280,151.5l0-12.2
	c0-15.8,2.3-35,7.4-54.5c-15.6-7-31.6-12.2-39.1-14.4c-3.6-1.1-7.6-0.3-10.6,2.1c-3,2.4-4.6,6.1-4.3,9.9c0.1,1.6,2.7,35.7,18.9,65.3
	c-11.4,6.2-28,13.5-35.1,16.4c-5.1,2.1-8.1,7.6-7,13.1C212.1,186.6,222.6,195.6,284.4,198L284.4,198z"/>
</svg>
