<?xml version="1.0" encoding="utf-8"?>
<!-- Generator: Adobe Illustrator 26.0.1, SVG Export Plug-In . SVG Version: 6.00 Build 0)  -->
<svg version="1.1" id="Layer_1" xmlns="http://www.w3.org/2000/svg" xmlns:xlink="http://www.w3.org/1999/xlink" x="0px" y="0px"
	 viewBox="0 0 700 700" style="enable-background:new 0 0 700 700;" xml:space="preserve">
<style type="text/css">
	.st0{fill:#FFFFFF;}
</style>
<g>
	<path class="st0" d="M601.7,275.5c-3-18.6-5.1-37.6-15.5-54.1c-0.8-1.3-0.8-3.2-1.5-4.7c-8.9-18.6-17.7-28.4-38.8-47.1
		c-15.7-14-34.5-20.8-54.4-24.7c-16.6-3.2-25.6-1.8-68.2,8.7c2.4-4.2-3,0.9,27.4-24.1c5.9-4.8,4.9-13.1-4.5-13.4
		c-13.4-0.4-25.2,3-37.2,8.3c-13.5,6-27.4,11.4-37.8,22.7c-1.8,1.9-4.6,2.9-8.2,5c2.9-21.3,3.2-25.8,5.1-31.8
		c14.3-46.5,22.1-63.4,12.2-65.8c-3.2-0.8-5.7,0.3-7.6,2.9c-1.9,2.7-4.2,5.2-5.5,8.2c-6.7,15.8-17.3,30-20.4,47.4
		c-0.3,1.6-9.4,17.7-12.5,45.1c-0.2,1.5-0.7,3-1.3,5.2c-31-17.2-37-21.5-52.7-25.5c-10.3-2.6-20.5-3.6-20.5,6.9
		c0,11.8,20.6,11.2,38.3,41.2c-5.6-1.8-9.2-2.9-12.6-4.1c-43.9-16-87.5-15.6-126.1,11.8c-9.4,6.6-17.7,14.8-26.2,22.6
		c-4.4,4.1-11.6,14.6-14.9,19.5c-17.6,26.4-17.3,43.5-19.1,59.1c-3.6,29.9-0.4,57.4,20.2,96.1c17.3,32.5,53.2,60.4,62.8,68.7
		c8,7,11.4,3.5,20.6,13c3.4,3.5,43.6,20.1,61.9,24c15.3,3.3,30.7,5.6,46.1,8.4c0.3,0.1,52.2,2.5,76.4-3.5
		c29.1-7.3,54.7-9.6,83.6-25.2c4.4-2.4,16.4-6.6,22.4-10.1c32.7-19,44.9-27.4,68.7-57.2c4.3-5.4,5.8-7.8,21.5-41.6
		c3.7-7.8,8.8-15.5,8.9-24.2c0.2-9,5.4-16.3,6.6-24.9C599.5,315,603.1,284.3,601.7,275.5L601.7,275.5z M363.9,96.2
		c0.5,1.2,0.6,0.8-0.2,1.8C363.2,96.8,363.2,97.3,363.9,96.2z M270.5,194.8c22.8-0.4,32.6,8.3,40.1,10.4c5.7,1.6,11.1-2.9,10.2-8.8
		c-0.5-3.1-1.7-6.5-3.5-9.1c-7.2-10-14-20.4-24.8-27.3c-3.7-2.4-6.7-5.9-10.5-9.4c14.2,1.7,20.2,7.5,48,21.6
		c6.6,3.4,11.3,1.3,13.1-5.8c6.2-24.4,3.8-22.4,14.6-54.9c0.5-1.4,1.9-2.4,2.9-3.6c0-0.2,0-0.3,0-0.5c0.1,0.1,0.1,0.2,0.2,0.3
		c-4.1,16.5-14.9,64.3,2.1,56.3c11.9-5.6,33.1-24.4,43.2-27.9c7-2.4,14.1-4.3,21.2-6.3c0.7-0.2,1.5,0.3,3.1,0.7
		c-17,15.7-34.9,30-45.5,51.6c10.4,4.2,19.5-5.4,31.2-4c-1.4,1.2-2.7,2.7-4.3,3.4c-7.1,3.2-14.4,6.1-21.6,9.3
		c-27.2,12-14.5,17.9,20.1,48.9c-4.4-0.4-6.6-0.2-8.6-0.9c-34.4-11.3-30.7-10.7-37.9-14.4c-20.6-10.7-24.7-15.6-32.3-5.1
		c-10.7,14.9-12.6,33.1-20,43.4c-4.2-3.8-3.5-6.1-4.5-31.7c-0.4-10.9-0.8-16.6-11.8-18.4c-71.3-11.1-51.2-4-66.2-10.6
		c2.6-1.5,4.2-3,6-3.5C258.8,191.8,269.2,194.8,270.5,194.8L270.5,194.8z M582.1,292.4c-1.5,15.3,0.2,25.9-9.1,52
		c-14.1,39.6-21,51.4-55.6,86.1c-4.3,4.3-10.1,7-14.9,10.9c-11.6,9.4-25.8,14.5-38.2,22.5c-15.9,10.2-75.9,22.6-95,24.9
		c-19.4,2.4-38.6,1.9-57.9,1.1c-1.9-0.1-16.7-3.6-20.6-3.9c-20.8-1.8-40.1-8.7-59-16.9c-20.8-9.1-17.4-7.7-24.2-12
		c-2.1-1.3-4-3-6.2-4c-6-2.9-11.3-6.8-16.2-11.2c-22.9-20.2-27.3-22.5-29.2-26.4c-4.2-8.5-13.7-15.4-15.6-19
		c-24.1-45-21.4-39-25.7-69.9c-4.1-29.3,0.2-20.3,1.4-42.8c0.7-13.2,6.6-24.6,12.1-36.1c3.2-6.7,7.6-12.7,11.6-19
		c3.3-5.3,7.7-9.6,13.1-12.9c9.5-5.8,4.8-8.2,38.1-24.7c14.7-7.3,29.9-8.6,45.7-6.8c1.5,0.2,2.9,1,5.5,1.9
		c-20.5,7.9-26.8,9.1-26.3,18.3c0.2,4.4,3.2,6.8,7,7.7c9.6,2.1,18.9,5.6,29,5.7c7,0-0.3,0.5,43,4.9c2,6.5,0.4,1.9,6.1,43
		c0.1,0.4,0.2,0.8,0.4,1.2c1.7,3.8,3.4,7.9,8.1,8.6c7.5,1.2,11.1-8.2,16.1-21c12.7-32.9,5.6-18.5,13.7-31.7
		c6.9,1.4,13.2,3.9,18.1,7.9c12.4,10.2,42.1,19.3,53.7,20.4c4.4,0.4,13.2,3.9,16.9,3.3c5.8-1,9.1-5.5,3.6-9.8
		c-41.6-32.1-28.6-23.1-45.1-39.8c2.3-1.7,3.2-2.7,4.3-3.2c50.4-20.2,41-15.9,43.6-17.3c10.4-5.6,5.9-9.5,5.9-17.5
		c16.1-4.8,32.6-3.8,49-3.5c4.5,0.1,30.8,9.1,49.5,25.9c12.9,11.6,21.1,26.2,31.7,39.2c1.7,2.1,2,5.3,2.8,8
		C578.5,254.5,584,272.5,582.1,292.4L582.1,292.4z"/>
	<path class="st0" d="M311.5,438.9c-10.2-0.7-19.9-5.5-30.5-3.5c-1.4,0.3-3.1-0.9-4.5-1.6c-15-7.5-30.8-13.5-44.1-24.1
		c-46.1-36.7-34.9-24.9-62.2-59.2c-2-2.5-7.4-14.2-14.2-27.3c-0.6-1.2-2-2.1-3.6-3.6c-0.4,2.2-1,3.5-0.7,4.6
		c21.3,64.6,54.4,85.6,106.2,114.4c2.2,1.2,19.5,4.5,30.4,9.9c2.5,1.2,5.6,1.3,8.4,1.8c41.4,7.5,56.1,3.6,76.2-4.6
		c1.8-0.7,2.7-3.5,4.6-6.1c-2.7-0.6-4.2-1.2-5.7-1.2C319.3,439.8,351.9,441.5,311.5,438.9L311.5,438.9z"/>
	<path class="st0" d="M499.1,185.2c-9.5-0.8-8.2,8.9-2.2,9.9C503.6,196.2,502.1,185.5,499.1,185.2z"/>
	<path class="st0" d="M515.6,212.9c-2.3-0.1-4.2,0.9-4.2,3.3c0,1.6,1.3,3.2,2.4,6c2.5-2.4,4.5-3.8,5.6-5.6
		C520.2,215.4,517.5,213,515.6,212.9L515.6,212.9z"/>
	<path class="st0" d="M522,200.5c2.2,0.5,5.3-1.9,5.5-4.8c-1.1-0.8-2.5-2.4-4.2-2.8C518.3,191.6,517,199.3,522,200.5L522,200.5z"/>
	<path class="st0" d="M355.7,195.8c2.3-1.6,4.3-3.7,7.8-6.6c-3.1-1.1-4.7-2.4-6.1-2.1c-6.5,1-13,0.8-19.5-0.1
		c-1.1-0.1-2.3,0.6-3.4,1.1c-1.2,0.5-1.8,3.2-0.9,4.3C339,198.8,348.7,200.5,355.7,195.8L355.7,195.8z"/>
</g>
</svg>
