<?xml version="1.0" encoding="utf-8"?>
<!-- Generator: Adobe Illustrator 26.0.1, SVG Export Plug-In . SVG Version: 6.00 Build 0)  -->
<svg version="1.1" id="Layer_1" xmlns="http://www.w3.org/2000/svg" xmlns:xlink="http://www.w3.org/1999/xlink" x="0px" y="0px"
	 viewBox="0 0 700 700" style="enable-background:new 0 0 700 700;" xml:space="preserve">
<style type="text/css">
	.st0{fill:#FFFFFF;}
</style>
<g>
	<path class="st0" d="M304.2,244.3c0.1,0,0.2,0,0.4,0c1.5,0,2.9-0.6,3.9-1.6c1.1-1.1,1.7-2.7,1.7-4.2c-0.1-1.8-2.1-43.7-18.6-60.4
		c-6.3-6.3-14.6-9.9-23.5-9.9h-0.2c-8.8,0-17.2,3.4-23.4,9.6c-13.1,12.9-13.2,34.1-0.3,47.2C260.2,241.2,302.4,244.1,304.2,244.3
		L304.2,244.3z M252.2,185.7c4.2-4.2,9.9-6.3,15.7-6.4c5.9,0,11.5,2.4,15.6,6.6c9.4,9.6,13.6,33,14.9,46.6
		c-13.7-1.6-37.2-6.1-46.5-15.5C243.4,208.3,243.5,194.3,252.2,185.7L252.2,185.7z"/>
	<path class="st0" d="M452.3,338.8c-16.1-16.3-58.4-19.2-60.1-19.4c-1.6-0.1-3.1,0.5-4.3,1.6c-1.1,1.1-1.7,2.7-1.7,4.2
		c0.1,1.8,2.1,43.7,18.6,60.4c6.3,6.3,14.6,9.9,23.5,9.9h0.2c8.8,0,17.1-3.4,23.4-9.6C465.1,373,465.2,351.9,452.3,338.8
		L452.3,338.8z M444.1,378c-4.2,4.1-9.7,6.4-15.6,6.4h-0.1c-5.9,0-11.5-2.4-15.6-6.6c-9.4-9.6-13.6-33-14.9-46.6
		c13.7,1.6,37.2,6.1,46.5,15.5h0C452.9,355.3,452.8,369.4,444.1,378L444.1,378z"/>
	<path class="st0" d="M396.4,240.7c0.1,0,0.2,0,0.2,0c1.8-0.1,43.7-2.1,60.4-18.6c13.1-12.9,13.2-34.1,0.3-47.2
		c-6.3-6.3-14.6-9.9-23.5-9.9c-8.9-0.1-17.3,3.4-23.7,9.6c-16.3,16.1-19.3,58.4-19.4,60.1c-0.1,1.6,0.5,3.1,1.6,4.3
		C393.4,240.1,394.9,240.7,396.4,240.7L396.4,240.7z M418,182.6c4.2-4.1,9.7-6.4,15.6-6.4h0.1c5.9,0,11.5,2.4,15.6,6.6
		c8.6,8.7,8.5,22.8-0.2,31.3c-9.6,9.4-33,13.6-46.6,14.9C404.2,215.3,408.7,191.8,418,182.6L418,182.6z"/>
	<path class="st0" d="M305.3,321.2c-1.8,0.1-43.7,2.1-60.4,18.6c-6.3,6.3-9.9,14.6-9.9,23.5c-0.1,8.9,3.4,17.3,9.6,23.6
		c6.3,6.3,14.6,9.9,23.5,9.9h0.2c8.8,0,17.1-3.4,23.4-9.6c16.3-16.1,19.2-58.4,19.4-60.1c0.1-1.6-0.5-3.1-1.6-4.3
		C308.4,321.8,306.9,321.2,305.3,321.2L305.3,321.2z M283.9,379.4c-4.2,4.1-9.7,6.4-15.6,6.4h-0.1c-5.9,0-11.5-2.4-15.6-6.6
		c-4.2-4.2-6.4-9.8-6.4-15.7c0-5.9,2.4-11.5,6.6-15.6c9.6-9.4,33-13.6,46.6-14.9C297.8,346.6,293.2,370.1,283.9,379.4L283.9,379.4z"
		/>
	<path class="st0" d="M350.9,131.6h-0.2c-18.3,0-33.3,14.8-33.4,33.2c-0.1,23,27.6,54.9,28.8,56.2c1.1,1.2,2.6,1.9,4.2,1.9h0.1
		c1.6,0,3.1-0.7,4.1-1.8c1.2-1.3,29.4-32.4,29.6-55.9C384.2,146.8,369.3,131.7,350.9,131.6L350.9,131.6z M350.4,208.6
		c-8.6-10.8-22-30.7-21.9-43.8c0.1-12.2,10-22,22.2-22h0.1c12.2,0.1,22.1,10.1,22,22.3C372.8,178.5,359.1,198,350.4,208.6
		L350.4,208.6z"/>
	<path class="st0" d="M348.7,336.8c-1.4-0.1-3.1,0.6-4.2,1.8c-1.2,1.3-29.4,32.4-29.6,55.9c-0.1,18.4,14.8,33.5,33.2,33.6h0.2
		c18.3,0,33.3-14.8,33.4-33.2c0.1-23-27.6-54.9-28.8-56.2C351.8,337.5,350.3,336.8,348.7,336.8L348.7,336.8z M348.3,416.9h-0.1
		c-12.2-0.1-22.1-10.1-22-22.3c0.1-13.4,13.7-32.9,22.4-43.5c8.6,10.8,22,30.6,21.9,43.8C370.4,407,360.5,416.9,348.3,416.9
		L348.3,416.9z"/>
	<path class="st0" d="M467.8,249c-23,0-54.7,27.7-56.1,28.8c-1.2,1.1-1.9,2.6-1.9,4.2c0,1.6,0.6,3.1,1.8,4.2
		c1.3,1.2,32.4,29.4,55.9,29.6h0.2c18.3,0,33.3-14.8,33.4-33.2c0.1-18.4-14.8-33.5-33.2-33.6C467.9,249,467.9,249,467.8,249
		L467.8,249z M489.9,282.5c-0.1,12.2-10,22-22.2,22h-0.1c-13.4-0.1-32.9-13.7-43.5-22.4c10.8-8.5,30.5-21.9,43.7-21.9h0.1
		C480.1,260.3,490,270.3,489.9,282.5L489.9,282.5z"/>
	<path class="st0" d="M292,282.8c0-1.6-0.6-3.1-1.8-4.2c-1.3-1.2-32.4-29.4-55.9-29.6H234c-18.3,0-33.2,14.8-33.4,33.2
		c-0.1,18.4,14.8,33.5,33.2,33.6h0.2c23,0,54.7-27.7,56.1-28.8C291.3,285.9,292,284.4,292,282.8L292,282.8z M234,304.5h-0.1
		c-12.2-0.1-22.1-10.1-22-22.3c0.1-12.2,10-22,22.2-22h0.1c13.4,0.1,32.9,13.7,43.5,22.4C266.9,291.2,247.1,304.5,234,304.5
		L234,304.5z"/>
	<path class="st0" d="M350,93.1c-49.9,0-96.9,19.4-132.1,54.7c-72.9,72.9-72.9,191.4,0,264.3c35.3,35.3,82.2,54.7,132.1,54.7
		s96.9-19.4,132.1-54.7c72.9-72.9,72.9-191.4,0-264.3C446.8,112.5,399.9,93.1,350,93.1L350,93.1z M474.2,404.2
		c-33.2,33.2-77.3,51.5-124.2,51.5s-91.1-18.3-124.2-51.5c-68.5-68.5-68.5-180,0-248.5c33.2-33.2,77.3-51.5,124.2-51.5
		s91.1,18.3,124.2,51.5C542.7,224.3,542.7,335.7,474.2,404.2z"/>
	<path class="st0" d="M191.5,121.5c-42.3,42.3-65.6,98.6-65.6,158.5s23.3,116.1,65.6,158.5C235.2,482.2,292.6,504,350,504
		s114.8-21.8,158.5-65.5c42.3-42.3,65.6-98.6,65.6-158.5s-23.3-116.1-65.6-158.5C421.1,34.2,278.9,34.2,191.5,121.5L191.5,121.5z
		 M500.5,430.5c-83,83-218.1,83-301.1,0c-40.2-40.2-62.4-93.7-62.4-150.5s22.1-110.3,62.4-150.6c41.5-41.5,96-62.3,150.5-62.3
		s109,20.8,150.5,62.3c40.2,40.2,62.4,93.7,62.4,150.6S540.8,390.3,500.5,430.5L500.5,430.5z"/>
</g>
</svg>
