<?xml version="1.0" encoding="utf-8"?>
<!-- Generator: Adobe Illustrator 26.0.1, SVG Export Plug-In . SVG Version: 6.00 Build 0)  -->
<svg version="1.1" id="Layer_1" xmlns="http://www.w3.org/2000/svg" xmlns:xlink="http://www.w3.org/1999/xlink" x="0px" y="0px"
	 viewBox="0 0 700 700" style="enable-background:new 0 0 700 700;" xml:space="preserve">
<style type="text/css">
	.st0{fill:#FFFFFF;}
</style>
<g>
	<path class="st0" d="M440.9,402.6l100.3,100.3c4.4,4.4,10.1,6.6,15.8,6.6c5.7,0,11.5-2.2,15.8-6.6c8.8-8.7,8.8-22.9,0-31.7
		L472.6,370.9c26.9-33.8,43-76.4,43-122.9c0-108.9-88.6-197.5-197.5-197.5c-108.9,0-197.5,88.6-197.5,197.5
		c0,108.9,88.6,197.5,197.5,197.5C364.5,445.6,407.2,429.5,440.9,402.6L440.9,402.6z M165.3,248.1c0-84.2,68.5-152.7,152.7-152.7
		c84.2,0,152.7,68.5,152.7,152.7c0,84.2-68.5,152.7-152.8,152.7C233.8,400.8,165.3,332.3,165.3,248.1L165.3,248.1z"/>
</g>
</svg>
