<?xml version="1.0" encoding="utf-8"?>
<!-- Generator: Adobe Illustrator 26.0.1, SVG Export Plug-In . SVG Version: 6.00 Build 0)  -->
<svg version="1.1" id="Layer_1" xmlns="http://www.w3.org/2000/svg" xmlns:xlink="http://www.w3.org/1999/xlink" x="0px" y="0px"
	 viewBox="0 0 700 700" style="enable-background:new 0 0 700 700;" xml:space="preserve">
<style type="text/css">
	.st0{fill:#FFFFFF;}
</style>
<g>
	<path class="st0" d="M266.7,124.1c-10.3-11.3-20.1-20.6-35.6-20.9c-2.3,0-4.6-4-6.8-6.1c1.9-2.6,4.4-4.6,7.3-6.1
		c6.9-0.7,13.9-0.8,20.8-0.4c20.4,0.5,40.8,1.1,61.1,1.9c14.4,0.7,27.9,7.7,36.8,19c2.5,2.3,5.1,4.4,8,6.3
		c13.1-34.5,38.2-55.2,70.1-68.7h0c4.3-2,9.2-2.1,13.6-0.5c4.4,1.7,7.9,5.1,9.8,9.4c2,4.8,2.1,10.1,0.2,15
		c-1.9,4.8-5.6,8.7-10.3,10.8c-19,9.9-31.7,26.2-43.1,45.4v0c1.9,0.5,4,0.7,5.9,0.3c15-9.8,31.2-9,48-6.8c6.4,0.9,13.1-1.3,19.6-0.9
		c6.4,0.8,12.8,2,19,3.6c-2.6,4.9-5.1,9.7-7.3,13.9c9.6,0,20.9,0.8,32.2-0.1c31.2-2.5,53.1,14.3,71.6,35.6
		c27.5,31.7,34.8,70,28.1,110.6c-4,23.7-7.7,48.2-16.7,70.2h0c-11.9,27.3-29.6,51.6-51.9,71.3c-10.1,9.4-19.4,19.8-30.1,28.5l0,0
		c-10.7,8.8-22.1,16.6-34.2,23.3c-27.4,15.1-57.8,24.2-89,26.5c-27.2,2.1-54.3,6.1-81.6,6.9c-42.4,1.9-84.2-10.6-118.7-35.4
		c-23.7-17.1-47.8-33.9-70-52.8c-16.4-14-31.6-30.6-36.4-52.6c-3.5-16.8-5.2-33.9-5.1-51.1c-1-16.6,0.6-33.2,4.7-49.3
		c7.9-22.9,17.8-45.1,29.6-66.3c8.6-15.9,18.8-30.9,30.3-44.9c25.3-31.2,58.7-43.6,98.5-38.8C251.9,121.8,258.7,123,266.7,124.1
		L266.7,124.1z M496.4,232.7c-2.1,4.4-4.9,8.4-8.3,11.9c-7.1,4.4-14.4,8.3-22,11.7c2.8,1.4,5.4,3.3,7.7,5.4
		c5.6,7.7,11.4,8.2,19.6,3.1c9.4-5.8,20.1-9.4,29.7-15h0c6.7-4.4,13-9.2,19.1-14.4l-1.5-1.6h16.6c-1.3,7.5-2.9,14.9-3.8,22.3
		c-0.4,2.5,0.3,5,1.9,6.9c2.5,0.5,5.1,0,7.2-1.3c2.9-1.7,5.7-3.7,8.4-5.8l3.1,2.3c-20.6,14.1-14.1,37.2-23.1,56.8l16.4-6.3l1.7,2.7
		c-7.3,5.8-14.5,11.5-24,19c8.1-1,12.9-1.6,17.7-2.2c0.8,1.3,1.6,2.6,2.4,4c-25,1.9-31.7,20.7-38.9,39.4
		c12.9-7.1,27.9-13.3,36.1-24.4c34.2-46,27-92.5-11-137.3l-4.5-13.3l2.4-1.9c13.5,13.3,27,26.7,40.5,40l-2.8,2.9
		c-4.3-3.9-8.5-7.9-12.8-11.8l-1.3,1.2c4.6,12.4,9.3,24.7,15.1,40v-17.6l3.9-0.4l0,0c1.4,5.1,2.3,10.3,2.7,15.5
		c-1.2,29.3-9.6,57.8-24.6,83.1c-5.4,10.9-14.8,19.2-26.2,23.5c-11.9,4.6-23.2,10.7-36.7,16.9c-6.6-3.4-17.8,2.7-23,15.6
		c11.7-3.6,23.7-6.6,35.1-11.1c11.1-4.4,21.7-10.2,33.7-16c-0.3,4.3-0.5,7.3-0.7,10.7c54.1-48.5,68.8-158.4,15.6-211.6
		c2.1,5.2,4.4,10.8,6.7,16.5l-2.6,4c-17.3-29.3-42.5-21.1-67.4-14l0.1-4.7c9.2-3.2,18.5-6.5,27.4-9.6c-20.4-16.6-39.1-0.6-59,1.8
		c9.1,14.8,46.4,25.9,65.4,18.4c-5.2,5.5-10.7,8.7-11.9,13c-3.1,11.7-11.7,11-20.6,12.1c-13.1,1.6-26,4.2-41.2,6.7
		c7.1,8.8,11.8,14.8,15.7,19.7C486.3,237,491.3,234.8,496.4,232.7L496.4,232.7z M377.7,214.3c7.4-12.9,17.7-13.2,30.3-8.2
		c14.5,6.7,30.8,8.4,46.4,4.9c13.1-3.5,26.1-7.6,41.8-12.2c-19-7.4-34.9-14.9-51.6-19.7c-17.7-5.1-32,6.9-47.8,13.6v0
		c6.6-10.5,14.5-20.2,23.4-28.8c9.2-9.1,18.9-17.6,28.3-26.3c-4.9-2.8-10.5-4.1-16.1-4c-5.6,0.2-11.1,1.8-15.9,4.8
		c-5.9,3.4-12.5,9-18.3,8.4c-10.9-1.2-13.5,2-13.5,12.1c-0.1,10.4-12.2,18.2-24.7,15.9c-10.6-2-8.9-11-8.4-18.7
		c0.6-8.6,1.5-17.2,2.1-24.5c-27.1-7.6-51.3-23.8-81.4-21.9c10.1,14,19.4,26.5,36.8,29.3l0,0c7,1.1,14,2.9,20.7,5.2
		c2.2,1.8,3.9,4,5.1,6.6c-2.7,1.5-5.6,2.6-8.7,3.2c-7.6-0.9-15.3-1.3-22.9-1.1c-12.8,2-28.6,3.3-33.5,16.7
		c-3.9,10.6-10.7,14.3-18.7,18.8c-2.9,2-5.6,4.2-8.2,6.6c33.6,8.9,65.2,4.3,82-11.1c-3.4,1.2-6.9,2.5-10.4,3.8l-1.2-3.2l26.9-13
		l3.6,2.1c-3.6,35.6-7.2,71.2-11,108.5c24.1-21.2,25.3-53.2,45-75.2L377.7,214.3c-6.1,13-12.3,26-18.5,38.9
		C371.3,242.9,378.8,230.5,377.7,214.3L377.7,214.3z M281.6,140.6c-2.1-1.8-4.6-3.2-7.3-4c-39.3-5.8-75.3,1-105.5,28.7
		c-11,10.1-22.2,19.6-28.5,34.1c-3.3,7.7-12,12.9-16.2,20.4c-19,34.1-32.3,69.8-29,110.1c2.4,28.6,11.2,55.8,31,75.3
		c22,21.7,48.6,39,74.3,56.7c22.1,15.2,47.7,22,73.8,28.5h0c26.1,7.2,53.3,9.2,80.2,5.9c53.5-8.4,104.6-28.5,149.4-58.9
		c10.6-8.1,20.5-17,29.8-26.6l-2.5-2.7c-21.5,9.6-43.1,19.2-64.6,28.9c-0.5-1.2-1.1-2.3-1.6-3.5l71.1-35.2l-1.7-3.9
		c-12.3,4.2-24.7,7.9-36.7,12.7c-3.6,1.5-5.6,8.2-9,8.8c-30.1,5.6-53.6,24.2-78.9,39c-2.6,1.5-2.7,7.2-4.6,13h0
		c-2.8-1.5-5.9-2.3-9.1-2.5c-4.6,0.9-8.9,2.5-13,4.7l6,3.4c-15.8,7.8-32.7,10.4-42.2,5.9l26.5-5.4c-41-1.1-81.8,7-122.6-0.3l0,0
		c7.7-1.8,15.6-2.4,23.5-2c23.7,0.8,47,0.5,68.8-11.2c11.5-6.2,25.3-9.1,35.1-17.1c6.5-5.3,11.2-8.7,18.4-8.6l1.8,3.8
		c-18.1,9.7-36.2,19.3-54.3,29c22.7-1.2,45.4-0.3,63.5-16.8c9.3-8.4,19.6-15.6,29.3-23.6c5.1-4.2,9.1-10.6,14.8-13
		c11.4-4.8,21.1-10.7,26.5-22.4c2.1-2.2,4.6-4,7.4-5.3c9.4-7.1,18.7-14.3,28-21.4c-0.7-1.1-1.5-2.1-2.2-3.2
		c-16.2,3.9-32.3,7.9-48.5,11.8l-0.8-3.1c8.8-2.9,17.6-5.9,26.5-8.8l-1-3.5c-3.3-0.4-6.6-0.7-9.6-1.1c0.6-5.3,20.2-3.5,5.3-12.9
		c1.9-3.4,3.8-6.8,5.7-10.2l0,0c-6.6-1.3-13.4-0.2-19.3,2.9c-4.3,4.3-7.9,9.3-10.6,14.8l-2.2-1l1.4-11c-2.4-0.2-4.8-0.3-7.2-0.5
		c8.7-4.2,16.9-8.1,14.9-20.1c-6.6,1.7-13.1,3.4-19.6,5h0c5.2-4.2,10.9-7.7,17.1-10.4c2.9-1.3,5.2-3.8,6.2-6.9
		c1-17.8,5.4-37.1-17.1-46.6c-5.4-3.4-10.4-7.5-14.9-12c5,0.5,9.9,1.5,14.7,3c3.1,1.7,6.7,2.2,10.1,1.6c3.5-0.7,6.6-2.5,8.8-5.2
		c1.9-2.7,2.2-6.1,1-9.1c-5.2-5.2-12.4-13.9-17.3-12.9c-19,3.7-35.9-1.7-53.1-7.5c-8.9-3-12.8,0.6-14,9.5
		c-0.2,5.4-1.9,10.6-4.8,15.1c-17.6,20.8-35.7,41.1-54.3,61.1c-2.3,2.4-8.2,1.4-12.4,2v0c-0.7-3.5-1.1-7.1-1-10.7
		c1.7-12.9,6-25.8,5.4-38.5c-0.9-12.9,1.1-25.9,6.1-37.9c1.9-5.9,3-12.1,3.4-18.3c-17.8,3.7-33.5,8.1-49.6,10.1
		c-12.6,1.5-25.6-1.1-38.2,0.4c-11.7,1.4-23.2,4.4-34.1,9.1c-7.9,3.4-10.1,0.6-13.5-5.7c3.6-2.8,6.6-5.1,9.6-7.3
		c10.9-7.9,22.5-15,32.6-23.8C251.9,169.8,265.9,155.6,281.6,140.6L281.6,140.6z M510.1,315.9h11.3c-7.2,4.5-10.8,14.3-21.2,12.3v0
		c-2.6,1-4.5,3.3-5.2,5.9c-0.2,4.7,0,9.5,0.7,14.2c14.6-4.3,28.7-6.9,41.9-17.3c-7.8,1.3-13.2,2.2-17.5,2.9
		c5.3-9.2,10.1-17.4,15.8-27.1l2,13l2.2-0.2c0.4-6.3,0.8-12.7,1.1-18.5l-5.9,4.5c0.7-6.5,1.2-11.2,1.7-16.2
		C512.4,294.9,507.1,300.2,510.1,315.9L510.1,315.9z M512.1,261.3c-8.5,4.1-16.3,7.4-23.6,11.5c-2.2,1.6-3.5,4.1-3.5,6.9
		c1.7,7.2,3.9,14.3,6.5,21.3c1.8-0.2,3.5-0.6,5.2-1.3C512.5,292.7,517.6,280.7,512.1,261.3L512.1,261.3z M540.7,247.7
		c-20.6,7.1-25.1,15.8-21.7,41.7C542,276.6,549.4,262.5,540.7,247.7z M369.4,159.8c0.6-19.3,4.9-34.5,18.7-46.3
		c4.2-3.6,5.7-10.2,9.9-18.2C374.4,105,358.8,142,369.4,159.8L369.4,159.8z M299.4,106c14.2,4.9,28.5,9.8,45.4,15.6
		c-5.1-6.9-12.2-12-20.3-14.8C316.4,104,307.7,103.7,299.4,106L299.4,106z M391.5,86.4l2.9,6.2c5.9-11.9,20.4,2.4,24.9-9.5
		c-3.8-4.7-6.3-7.8-9.5-11.6C404.1,76.2,397.8,81.3,391.5,86.4L391.5,86.4z M495,355.5l1.7,4.7c8.8-5,21.5-1.1,26.6-15L495,355.5z
		 M485,311.8c-11,3.8-12.8,6.5-11.6,17.4C483.5,328,488.7,323.5,485,311.8z M494,322.4c13.4-1.7,11.4-9.2,9-17.7
		C491.5,306.4,490.8,312.8,494,322.4z"/>
	<path class="st0" d="M195.4,196.2c-33.2,16.8-43.5,52-64.7,79c-2.1-12.4,31.1-64.3,50.7-79.4c3.7-2.1,7.6-3.6,11.7-4.6
		C193.8,192.9,194.6,194.5,195.4,196.2L195.4,196.2z"/>
	<path class="st0" d="M434.3,373.9c-6-27.5-7.3-56.3-30.5-79.5C427.9,300.8,448.5,359.2,434.3,373.9z"/>
	<path class="st0" d="M142.2,384.6c-20.8-27-39-55-35-91.6C110.4,326.9,128.2,355,142.2,384.6z"/>
	<path class="st0" d="M141.3,390c13.7,16.3,27.3,32.6,41,49l3-2.9c-10-0.4-37.8-26.2-46.5-43.2L141.3,390z"/>
	<path class="st0" d="M342,484.9h-69l-0.2-2h68.8L342,484.9z"/>
	<path class="st0" d="M401.4,308.6c6.1,9.6-7.6,34.9-26,46.1C383.9,339.6,392.7,324.1,401.4,308.6z"/>
	<path class="st0" d="M132.4,334.8l16.3-47.8c1.5,0.5,3,1,4.4,1.5c-5.5,15.9-11.1,31.8-16.6,47.7L132.4,334.8z"/>
	<path class="st0" d="M461.5,193.4c-13.9,1-27.8,2.3-41.7,2.7c-2.7-1.1-5.2-2.8-7.1-5c1.9-2.3,4.4-4,7.1-5c14,0.9,27.9,2.6,41.8,4
		C461.6,191.1,461.6,192.3,461.5,193.4L461.5,193.4z"/>
	<path class="st0" d="M368.8,184.5c-6.6,18-13.3,36.1-19.9,54.1l-3.9-1.4c4.4-18.8,8.2-37.9,20.3-54L368.8,184.5z"/>
	<path class="st0" d="M339,134.7c-19.1-6.2-35.4-11.4-53.6-17.3C298.8,112.5,324.9,121,339,134.7z"/>
	<path class="st0" d="M425.6,152.5c-11.1,7.2-22.1,14.4-33.2,21.7l-3.1-4.6l32.5-22.3L425.6,152.5z"/>
	<path class="st0" d="M279,178.2c12.8-8.9,25.3-18.6,41.8-20.1l1.4,2.9c-13.9,6.7-27.8,13.4-41.8,20.1L279,178.2z"/>
	<path class="st0" d="M337.5,167.1c-11.1,5.5-22.2,11.1-33.4,16.6l-1.9-3.7c11.1-5.9,22.1-11.8,33.2-17.6L337.5,167.1z"/>
	<path class="st0" d="M549.5,209.8c-3.6,3.5-7.6,6.8-11.8,9.6c-9.9,5.7-20.1,10.8-30.4,15.9c-3.7,1.8-8.3,4.4-8.9-3.2
		C515.4,224.7,532.4,217.3,549.5,209.8L549.5,209.8z"/>
</g>
</svg>
