<?xml version="1.0" encoding="utf-8"?>
<!-- Generator: Adobe Illustrator 26.0.1, SVG Export Plug-In . SVG Version: 6.00 Build 0)  -->
<svg version="1.1" id="Layer_1" xmlns="http://www.w3.org/2000/svg" xmlns:xlink="http://www.w3.org/1999/xlink" x="0px" y="0px"
	 viewBox="0 0 700 700" style="enable-background:new 0 0 700 700;" xml:space="preserve">
<style type="text/css">
	.st0{fill-rule:evenodd;clip-rule:evenodd;fill:#FFFFFF;}
</style>
<g>
	<path class="st0" d="M349.7,13.2c147.4,0,266.4,119.7,266.4,266.5c0,147.4-119,266.5-266.5,266.5c-146.8,0-266.5-119-266.5-266.5
		C83.2,132.9,202.9,13.2,349.7,13.2L349.7,13.2z M349.7,333.9l-88.6,88.6c-35.7,35.7-89.3-18.5-54.2-53.6l89.3-89.3l-89.3-88.6
		c-35-35.7,18.5-89.3,54.2-54.2l88.6,89.3l89.3-89.3c35-35,89.3,18.5,53.6,54.2l-88.6,88.6l88.6,89.3c35.7,35-18.5,89.3-53.6,53.6
		L349.7,333.9z"/>
</g>
</svg>
